<svg xmlns:dc="http://purl.org/dc/elements/1.1/" xmlns:cc="http://creativecommons.org/ns#" xmlns:rdf="http://www.w3.org/1999/02/22-rdf-syntax-ns#" xmlns:svg="http://www.w3.org/2000/svg" xmlns="http://www.w3.org/2000/svg" xmlns:xlink="http://www.w3.org/1999/xlink" id="svg29816" viewBox="0 0 1024 768" height="768px" width="1024px" version="1.1">
  <metadata id="metadata29822">
    <rdf:rdf>
      <cc:work rdf:about="">
        <dc:format>image/svg+xml</dc:format>
        <dc:type rdf:resource="http://purl.org/dc/dcmitype/StillImage"></dc:type>
      </cc:work>
    </rdf:rdf>
  </metadata>
  <defs id="defs29820"></defs>
  <g id="logo-group">
    <image xlink:href="../nounpreview/120701.png" id="icon" width="200" height="200" x="412" y="0" style="display: none;"></image>
    <g id="title" style="font-style:normal;font-weight:300;font-size:72px;line-height:1;font-family:'Montserrat Light Alt1';font-variant-ligatures:none;text-align:center;text-anchor:middle">
      <path id="path29824" style="font-style: normal; font-weight: 300; font-size: 72px; line-height: 1; font-family: &quot;Montserrat Light Alt1&quot;; font-variant-ligatures: none; text-align: center; text-anchor: middle; fill: rgb(255, 255, 255);" d="m 412.96119,-37.584 h -3.312 l -12.672,33.48 -12.744,-33.48 h -3.096 l -12.816,33.552 -12.528,-33.552 h -3.456 L 366.59319,0 h 3.312 l 12.744,-32.616 12.672,32.616 h 3.384 z" transform="translate(0 297.2640266666667) translate(234.09000000000003 37.75999999999999) scale(1.6666666666666667) translate(-352.33719 37.584)"></path>
      <path id="path29826" style="font-style: normal; font-weight: 300; font-size: 72px; line-height: 1; font-family: &quot;Montserrat Light Alt1&quot;; font-variant-ligatures: none; text-align: center; text-anchor: middle; fill: rgb(255, 255, 255);" d="M 422.41681,-50.4 V 0 h 32.688 v -3.312 h -29.016 V -50.4 Z" transform="translate(0 297.2640266666667) translate(355.88936666666666 16.4) scale(1.6666666666666667) translate(-422.41681 50.4)"></path>
      <path id="path29828" style="font-style: normal; font-weight: 300; font-size: 72px; line-height: 1; font-family: &quot;Montserrat Light Alt1&quot;; font-variant-ligatures: none; text-align: center; text-anchor: middle; fill: rgb(255, 255, 255);" d="m 497.22031,-27.216 h -32.616 v 3.24 h 32.616 z m 0,-23.184 h -32.616 v 3.312 h 32.616 z m -32.616,47.088 V 0 h 32.616 v -3.312 z" transform="translate(0 297.2640266666667) translate(431.2018666666667 16.4) scale(1.6666666666666667) translate(-464.60431 50.4)"></path>
      <path id="path29830" style="font-style: normal; font-weight: 300; font-size: 72px; line-height: 1; font-family: &quot;Montserrat Light Alt1&quot;; font-variant-ligatures: none; text-align: center; text-anchor: middle; fill: rgb(255, 255, 255);" d="m 556.18269,-38.16 c -2.304,-3.816 -5.472,-6.768 -9.504,-9 -4.032,-2.16 -8.712,-3.24 -13.896,-3.24 h -19.944 v 3.312 h 19.656 c 4.608,0 8.712,0.936 12.312,2.808 3.528,1.872 6.264,4.464 8.208,7.704 1.872,3.312 2.88,7.128 2.88,11.376 0,4.32 -1.008,8.064 -2.88,11.376 -1.944,3.312 -4.68,5.904 -8.208,7.776 -3.6,1.872 -7.704,2.736 -12.312,2.736 h -15.984 V -25.2 h -3.672 V 0 h 19.944 c 5.184,0 9.864,-1.08 13.896,-3.24 4.032,-2.16 7.2,-5.112 9.504,-8.928 2.232,-3.816 3.384,-8.136 3.384,-13.032 0,-4.824 -1.152,-9.144 -3.384,-12.96 z" transform="translate(0 297.2640266666667) translate(516.5925000000002 16.4) scale(1.6666666666666667) translate(-512.83869 50.4)"></path>
      <path id="path29832" style="font-style: normal; font-weight: 300; font-size: 72px; line-height: 1; font-family: &quot;Montserrat Light Alt1&quot;; font-variant-ligatures: none; text-align: center; text-anchor: middle; fill: rgb(255, 255, 255);" d="m 590.88556,-50.4 v 3.312 h 32.256 V -50.4 Z m 0,50.4 h 3.672 v -22.248 h 28.584 v -3.312 h -32.256 z" transform="translate(0 297.2640266666667) translate(651.670616666667 16.4) scale(1.6666666666666667) translate(-590.88556 50.4)"></path>
      <path id="path29834" style="font-style: normal; font-weight: 300; font-size: 72px; line-height: 1; font-family: &quot;Montserrat Light Alt1&quot;; font-variant-ligatures: none; text-align: center; text-anchor: middle; fill: rgb(255, 255, 255);" d="m 666.50919,0 h 4.32 l -19.368,-26.064 18,-24.336 h -4.104 l -16.056,21.672 -16.056,-21.672 h -4.32 l 18,24.408 L 627.55719,0 h 4.32 l 17.28,-23.328 z" transform="translate(0 297.2640266666667) translate(717.7900000000003 16.4) scale(1.6666666666666667) translate(-627.55719 50.4)"></path>
    </g>
    <g id="tagline" style="font-style:normal;font-weight:300;font-size:32px;line-height:1;font-family:Khula;font-variant-ligatures:none;text-align:center;text-anchor:middle">
      <path id="path29837" style="font-style: normal; font-weight: 300; font-size: 32px; line-height: 1; font-family: Khula; font-variant-ligatures: none; text-align: center; text-anchor: middle; fill: rgb(68, 68, 68);" d="m 477.09271,0 h -1.53691 v -8.1051567 l -7.1183,-13.1850353 h 1.69869 l 6.21233,11.6481293 6.22851,-11.6481293 h 1.60162 l -7.08594,13.0717896 z" transform="translate(0 382.55748800000003) translate(431.48801666666657 35.80653866666667) scale(1.6666666666666667) translate(-468.4375 21.290192)"></path>
      <path id="path29839" style="font-style: normal; font-weight: 300; font-size: 32px; line-height: 1; font-family: Khula; font-variant-ligatures: none; text-align: center; text-anchor: middle; fill: rgb(68, 68, 68);" d="m 495.80782,-8.9949444 q 0,-2.7340746 -1.19717,-4.2871586 -1.18099,-1.569262 -3.39737,-1.569262 -2.21638,0 -3.5915,1.520728 -1.37513,1.50455 -1.60162,4.3356926 z m -4.07684,9.28614764 q -3.44591,0 -5.38726,-2.11931244 -1.92518,-2.1516684 -1.92518,-5.9534884 0,-3.8018204 1.86047,-6.0667344 1.87664,-2.281092 5.03134,-2.281092 2.79879,0 4.40041,1.957533 1.61779,1.925177 1.61779,5.2901923 v 1.164813 h -11.38928 q 0.0162,3.2517694 1.50455,4.9828109 1.50455,1.7148635 4.28716,1.7148635 1.31041,0 2.36198,-0.1779576 1.05157,-0.1941354 2.62083,-0.8250758 v 1.31041457 q -1.29424,0.56622851 -2.44287,0.77654196 -1.14864,0.22649141 -2.53994,0.22649141 z" transform="translate(0 382.55748800000003) translate(461.7064166666666 44.40781866666667) scale(1.6666666666666667) translate(-484.41854 16.129424)"></path>
      <path id="path29841" style="font-style: normal; font-weight: 300; font-size: 32px; line-height: 1; font-family: Khula; font-variant-ligatures: none; text-align: center; text-anchor: middle; fill: rgb(68, 68, 68);" d="m 511.82691,-13.007078 q -1.42366,-1.811931 -4.06067,-1.811931 -2.62083,0 -4.04449,1.795753 -1.40748,1.795753 -1.40748,5.0798789 0,3.2841253 1.42366,5.1122345 1.43984,1.8119313 4.04449,1.8119313 2.62083,0 4.06067,-1.8281092 1.43983,-1.8281092 1.43983,-5.0960566 0,-3.2679479 -1.45601,-5.0637009 z m -11.03337,5.0798788 q 0,-3.8665318 1.87664,-6.0343778 1.87665,-2.167847 5.1446,-2.167847 3.26794,0 5.12841,2.184025 1.86046,2.184024 1.86046,6.0343778 0,3.8341759 -1.87664,6.0343781 -1.87664,2.16784634 -5.19312,2.16784634 -3.12235,0.0647118 -5.06371,-2.23255814 -1.94135,-2.29727 -1.87664,-5.9858443 z" transform="translate(0 382.55748800000003) translate(492.57793333333325 44.40781866666667) scale(1.6666666666666667) translate(-500.79145 16.129424)"></path>
      <path id="path29843" style="font-style: normal; font-weight: 300; font-size: 32px; line-height: 1; font-family: Khula; font-variant-ligatures: none; text-align: center; text-anchor: middle; fill: rgb(68, 68, 68);" d="m 531.67271,0 h -1.42366 v -10.256825 q 0,-2.37816 -1.00303,-3.462083 -0.98686,-1.100101 -3.12235,-1.100101 -2.84732,0 -4.15773,1.439838 -1.31042,1.439838 -1.31042,4.6430739 V 0 h -1.43983 v -15.822042 h 1.21334 l 0.27503,2.167846 h 0.0971 q 1.52073,-2.475228 5.48433,-2.475228 5.38726,0 5.38726,5.775531 z" transform="translate(0 382.55748800000003) translate(526.8683333333333 44.40781866666667) scale(1.6666666666666667) translate(-519.21569 16.129424)"></path>
      <path id="path29845" style="font-style: normal; font-weight: 300; font-size: 32px; line-height: 1; font-family: Khula; font-variant-ligatures: none; text-align: center; text-anchor: middle; fill: rgb(68, 68, 68);" d="m 536.88631,-21.290192 h 1.84429 l -0.48534,7.68453 h -0.88979 z" transform="translate(0 382.55748800000003) translate(559.9027 35.80653866666667) scale(1.6666666666666667) translate(-536.88631 21.290192)"></path>
      <path id="path29847" style="font-style: normal; font-weight: 300; font-size: 32px; line-height: 1; font-family: Khula; font-variant-ligatures: none; text-align: center; text-anchor: middle; fill: rgb(68, 68, 68);" d="M 554.30188,-1.2780586 V 0 h -11.29221 v -0.92214358 l 9.38321,-13.62184042 h -8.70374 v -1.278058 h 10.58039 v 0.905965 l -9.44793,13.6380184 z" transform="translate(0 382.55748800000003) translate(573.6916333333334 44.920122) scale(1.6666666666666667) translate(-543.00967 15.822042)"></path>
    </g>
  </g>
</svg>